<?xml version="1.0" encoding="UTF-8"?> <svg xmlns="http://www.w3.org/2000/svg" width="843" height="180" viewBox="0 0 843 180" fill="none"><path d="M110.6 44.46L76.83 143.42H75.27L41.5 44.46H0.5V59.34L13.39 61.27V162.94L0.5 164.88V179.76H33.88V81.57H35.25L68.63 179.76H83.47L116.85 81.57H118.21V179.76H151.6V164.88L138.71 162.94V61.27L151.6 59.34V44.46H110.6Z" fill="black"></path><path d="M196.3 44.46V59.34L209.18 61.27L177.18 162.94L164.29 164.87V179.75H210.75V164.88L197.87 162.95L204.7 140.14H245.3L252.3 162.95L239.61 164.88V179.76H285.87V164.88L273.18 162.95L235.93 44.46H196.3ZM224.41 74.61H225.78L240.62 123.9H209.62L224.41 74.61Z" fill="black"></path><path d="M382.34 44.46V136.85H380.78L332.17 44.46H298.6V59.34L311.48 61.27V162.95L298.6 164.88V179.76H331.98V87.37H333.54L382.15 179.76H402.84V61.27L415.53 59.34V44.46H382.34Z" fill="black"></path><path d="M520.75 44.46V136.85H519.19L470.58 44.46H437V59.34L449.89 61.27V162.95L437 164.88V179.76H470.39V87.37H471.95L520.56 179.76H541.25V61.27L553.94 59.34V44.46H520.75Z" fill="black"></path><path d="M573.22 44.46V59.34L586.1 61.27V162.95L573.22 164.88V179.76H665.75V144.39H650.13L647.78 161.78H606.6V61.27L619.48 59.34V44.46H573.22Z" fill="black"></path><path d="M724.51 0L698.15 21.84L705.15 31.31L734.43 13.31L724.51 0ZM683.32 44.46V59.34L696.21 61.28V162.94L683.32 164.87V179.76H729.59V164.88L716.71 162.95V61.27L729.59 59.33V44.46H683.32Z" fill="black"></path><path d="M753.01 44.46V59.34L765.89 61.27V162.95L753.01 164.88V179.76H799.28V164.88L786.39 163.14V123.71H821.72V105.93H786.39V62.43H825.04L827.39 79.83H843V44.46H753.01Z" fill="black"></path></svg> 