<?xml version="1.0" encoding="UTF-8"?> <svg xmlns="http://www.w3.org/2000/svg" id="Layer_1" data-name="Layer 1" width="875.26" height="280" viewBox="0 0 875.26 280"><title>nutiminn-logo-black</title><path d="M25.55,104.45,27.89,120q22.78-18.52,44.92-18.52,14.26,0,21.82,7.45t7.56,21.72v78.78H70.9v-69q0-7-2.24-9.69t-8-2.66q-10,0-29.17,9.58v71.75H0v-105Z" style="fill:#191717"></path><path d="M227.17,104.45v105H202.26l-2.34-14.48q-21.72,17.25-43.43,17.25-29.6,0-29.59-29.17V104.45H158.4v69q-.21,6.82,2.34,9.58t8.94,2.77q9.15,0,26.19-8.73v-72.6ZM169.26,92.74l-9.16-13.41L202.9,47.82l14.26,21.72Z" style="fill:#191717"></path><path d="M294,125.53v49.61q0,6,2.55,8.3t8.94,2.34h13.41l3.41,21.93Q310.21,212,292.75,212q-14.27,0-22.14-8t-7.88-22.25V125.53H244.2v-20l18.52-1.06V75.07H294v29.38h29.17v21.08Z" style="fill:#191717"></path><path d="M396.86,71,348.74,94.44l-9.16-13.63,42.79-31.51ZM373,209.42H341.5v-105H373Z" style="fill:#191717"></path><path d="M425,104.45l2.13,15.33q20-18.31,40-18.31,21.29,0,27,17,18.52-17,38.32-17,14.26,0,21.72,7.45t7.45,21.72v78.78h-31.3v-69q0-6.81-2.34-9.58t-8.73-2.77a25.62,25.62,0,0,0-9.79,1.92,103.44,103.44,0,0,0-13.62,7.45v72H465.63v-69q0-6.81-2.66-9.58t-8.62-2.77q-8.3,0-23.21,9.15v72.18h-31.3v-105Z" style="fill:#191717"></path><path d="M596.14,58h14.05q9.15,0,9.16,9.16v11.5q0,9.16-9.16,9.16H596.14q-9.16,0-9.16-9.16V67.19Q587,58,596.14,58Zm22.78,151.38h-31.3v-105h31.3Z" style="fill:#191717"></path><path d="M671.08,104.45,673.42,120q22.78-18.52,44.92-18.52,14.26,0,21.82,7.45t7.56,21.72v78.78h-31.3v-69q0-7-2.24-9.69t-8-2.66q-10,0-29.17,9.58v71.75H645.53v-105Z" style="fill:#191717"></path><path d="M798.61,104.45,801,120q22.78-18.52,44.92-18.52,14.26,0,21.82,7.45t7.56,21.72v78.78H844v-69q0-7-2.24-9.69t-8-2.66q-10,0-29.17,9.58v71.75H773.06v-105Z" style="fill:#191717"></path></svg> 