<svg version="1.1" id="Layer_1" xmlns="http://www.w3.org/2000/svg" x="0" y="0" viewBox="0 0 349.3 65.8" style="enable-background:new 0 0 349.3 65.8" xml:space="preserve"><path id="Vb-logo" d="M42.9 49.3V26H38v-1h4.9c2 0 3.9-.1 5.2-1.4v25.7H53v1H38v-1h4.9zM42.3 13c.1 1.7 1.5 3.1 3.3 3.2 1.8-.1 3.2-1.5 3.1-3.2.1-1.7-1.4-3.1-3.1-3.2-1.8 0-3.3 1.5-3.3 3.2zm28.9 26.3v-4.6c.1-5.2-.2-10-7-10-6.7 0-6.9 4.8-7 10v4.6c0 5.1.3 9.9 7 9.9 6.8 0 7-4.7 7-9.9zM63.7 11c-1.8-1.7-4.3-3.5-7.1-4.8l.6-.7c2.5.7 6.6 2.7 8.7 4.4l6-3.4.6.9-5.7 3.2c3.2 2.2 10.7 9.1 10.7 23.6.1 10.6-5 16.1-12.8 16.1-7.7 0-12.7-6.5-12.8-13.6 0-7 5.1-13.6 12.8-13.6 2.8 0 4.9.6 6.9 2.8h.1c-1.1-5.1-4.3-11.1-7.1-14.1l-6.4 3.5-.6-.9 6.1-3.4zm15.1 38.9h1c.1-1.2-.1-2.2.8-2.2 1.2 0 2.7 2.5 7.6 2.5 4.8 0 8.7-3.6 8.7-9.2 0-4.1-2.1-6.8-7.1-7.1l-2.1-.1c-4.2-.2-6.6-1.3-6.6-4.4s2.6-4.8 5.7-4.8c4.9 0 6.8 3.1 7.2 6.6h.9l-.2-7.2h-.9v.5c0 .8-.1 1.3-.5 1.3-.6-.1-2.9-2.2-6.2-2.2-4.9 0-7.9 3.4-7.9 7.8 0 6.2 3.9 6.7 8 7.2 3.3.3 7.1.4 7.1 5.2 0 3.4-2.7 5.5-6.1 5.5-6.5 0-8.2-5.4-8.6-8.4h-.9l.1 9zM129 13c0 1.7 1.5 3.1 3.3 3.2 1.7-.1 3.2-1.5 3.2-3.2s-1.4-3.1-3.2-3.2c-1.8 0-3.3 1.5-3.3 3.2zm41.9 31.9c0 4 2.7 5.4 7 5.3 4.5 0 6.3-3.1 6.8-4.6l-1-.1c-.3 1-1.7 3.8-4.8 3.8-1.9 0-3-.8-2.9-3.3V25.6h8.5v-1H176v-8.4h-.7c-1.1 5.9-3.4 8.6-9.8 8.5v1h5.4v19.2zm29.9-8.5h-1c-4.4-.1-9.8.1-9.8 6.7 0 3.5.5 6.1 4.3 6.1 4.5 0 6.5-3.5 6.4-4.7v-8.1h.1zm5.2 9.9c0 1.2.1 2.7 1.7 2.6 1.4 0 2.2-1.1 3.1-2.4l.7.5c-1.2 2-2.7 3.3-5.3 3.2-2.8 0-4.9-1.6-5.3-3.7h-.1c-2.1 2.7-4.8 3.7-8.7 3.7-4.6 0-7.5-2.3-7.4-6.4 0-6.8 8.9-8.4 15.1-8.4h1.1V28c0-2.8-2.6-3.5-4.9-3.5-1.7 0-5.8.7-5.7 2.9 0 1.4 1.9.7 1.9 3.5 0 1.4-1.2 2.5-2.7 2.5-1.7 0-2.6-1.4-2.6-3.4 0-3.1 3.2-6.5 9.2-6.5 4.6 0 10 2.3 9.9 7v15.8zm65.5-9.9h-1c-4.4-.1-9.8.1-9.7 6.7-.1 3.5.5 6.1 4.3 6.1 4.5 0 6.4-3.5 6.4-4.7v-8.1zm5.1 9.9c0 1.2 0 2.7 1.7 2.6 1.4 0 2.3-1.1 3.2-2.4l.7.5c-1.2 2-2.8 3.3-5.4 3.2-3 0-5.1-1.6-5.4-3.7h-.1c-2.2 2.7-4.9 3.7-9 3.7-4.8 0-7.7-2.3-7.8-6.4.1-6.8 9.3-8.4 15.7-8.4h1.1V28c0-2.8-2.7-3.5-5.1-3.5-1.8 0-6 .7-5.9 2.9-.1 1.4 2 .7 2 3.5 0 1.4-1.2 2.5-2.8 2.5-1.7 0-2.7-1.4-2.7-3.4 0-3.1 3.3-6.5 9.5-6.5 4.7 0 10.3 2.3 10.3 7v15.8zm23.8-7v-4.6c0-5.2-.3-10-7-10-6.8 0-7 4.8-7 10v4.6c0 5.1.2 9.9 7 9.9 6.7 0 6.9-4.7 7-9.9zM291.9 11c-1.9-1.7-4.4-3.5-7.2-4.8l.5-.7c2.6.7 6.6 2.7 8.8 4.4l5.9-3.4.6.9-5.6 3.2c3.1 2.2 10.6 9.1 10.7 23.6 0 10.7-5.1 16.2-12.8 16.1-7.9 0-12.9-6.5-12.9-13.6 0-7 5-13.6 12.9-13.6 2.7 0 4.8.6 6.9 2.8h.1c-1.2-5.1-4.4-11.1-7.3-14.1l-6.3 3.5-.6-.9 6.3-3.4zm19.8 38.3h-4.9v1h15v-1h-4.9V23.6c-1.2 1.2-3.2 1.4-5.2 1.4h-4.9v1h4.9v23.3zm.5-36.3c0 1.7 1.5 3.1 3.3 3.2 1.7-.1 3.2-1.5 3.2-3.2s-1.4-3.1-3.2-3.2c-1.9 0-3.3 1.5-3.3 3.2zm28.9 26.3v-4.6c0-5.2-.3-10-7-10s-7 4.8-7 10v4.6c0 5.1.2 9.9 7 9.9 6.7 0 6.9-4.7 7-9.9zM333.7 11c-1.9-1.7-4.4-3.5-7.2-4.8l.5-.7c2.6.7 6.6 2.7 8.8 4.4l5.9-3.4.6.9-5.6 3.2c3.1 2.2 10.6 9.1 10.7 23.6 0 10.7-5.1 16.2-12.9 16.1-7.9 0-12.9-6.5-12.9-13.6 0-7 5-13.6 12.9-13.6 2.7 0 4.8.6 6.9 2.8h.1c-1.2-5.1-4.4-11.1-7.3-14.1l-6.3 3.5-.6-.9 6.4-3.4zm-194 38.3v1H113v-1h4.4l-8.5-10.5-2.2 2v8.5h4.3v1H96.9v-1h4.8V1.2H97v-1h9.9v39.3l9.7-9.4c1.2-1.3 2.2-2.4 2.2-2.8 0-.7-.9-1-2.8-1h-2.1v-1h15.9c1.9 0 3.9-.1 5.1-1.3v25.4h4.8v-.1zM129 25.8h-5.2c-2.1 0-2.9.4-5 2.3l-6.8 6.7 9.4 11.2c1.4 1.6 1.9 2.3 3.1 2.3h4.5V25.8zm111.4 11.1c-.1 7.1-4.9 13.4-12.3 13.3-4.3 0-7.1-3.2-7.9-5h-.1v4.3h-9.2v-1h4.2V1.2h-4.7v-1h9.7v29.5h.1c1.1-2.8 3.9-6.1 8.2-6.1 7.2 0 12 7.5 12 13.3zm-5.4.1c-.1-8.1-1-12.2-6.4-12.3-5.1 0-8.6 4.9-8.6 9.3v6.9c0 5.6 4.5 8.3 8.2 8.3 6.1 0 6.8-3.4 6.8-12.2zm-68.5.1c0 7.1-4.9 13.5-12.6 13.5-4.2 0-7.1-3.1-7.9-5.1h-.1v18.7h2.5v1h-10v-1h2.4V25.9h-4.3v-1h4.3c1.9 0 3.9-.1 5.1-1.3v6.2h.1c1.1-2.8 4-6.2 8.4-6.2 7.3 0 12.1 7.6 12.1 13.5zm-5.4-.1c0-8.1-.9-12.2-6.3-12.3-5.2 0-8.7 4.9-8.7 9.3v6.9c0 4.7 3.7 8.3 8.2 8.3 6.1 0 6.9-3.4 6.8-12.2zm89.4 12.3V.2h-10v1h4.8v48.1h-4.9v1h15v-1h-4.9zM34.2 7.3v1h.6c4.3 0 4.9 1 4.8 2.3.1 1-.6 2.6-2.1 6.7l-8.7 24.2h-.1L14.4 4.6c-.1-.5-.1-.8-.1-1.1-.1-1.4.5-2.3 4.8-2.3h.6v-1H.5v1h1.6c3.6 0 4.6 3.9 5.5 6.3l2.1 5.7 15.9 38.1h.6l14.3-39c.9-2.4 2-4.1 5.5-4.1h1.6v-1H34.2v.1z" style="fill-rule:evenodd;clip-rule:evenodd;fill:#1f5cb8"/></svg>
